<svg xmlns="http://www.w3.org/2000/svg" width="190.736" height="65.755" viewBox="0 0 190.736 65.755">
  <g id="בצלאל_לימודי_חוץ_והמשך_-_לוגו" data-name="בצלאל לימודי חוץ והמשך - לוגו" transform="translate(-864.621 -23.823)">
    <g id="Group_340" data-name="Group 340" transform="translate(864.621 23.823)">
      <g id="Group_316" data-name="Group 316" transform="translate(26.597 0.001)">
        <path id="Path_1040" data-name="Path 1040" d="M1470.6,271.27H1368.687V232.133H1470.6Zm-100.017-1.9H1468.7V234.033h-98.117Z" transform="translate(-1368.687 -232.133)"/>
      </g>
      <g id="Group_325" data-name="Group 325">
        <g id="Group_317" data-name="Group 317" transform="translate(126.614)">
          <path id="Path_1041" data-name="Path 1041" d="M1578.1,297.887h-31.244V232.132H1578.1a32.878,32.878,0,1,1,0,65.755Zm-29.344-1.9H1578.1a30.978,30.978,0,0,0,0-61.956h-29.344Z" transform="translate(-1546.854 -232.132)"/>
        </g>
        <g id="Group_318" data-name="Group 318" transform="translate(134.554 9.49)">
          <path id="Path_1042" data-name="Path 1042" d="M1603.112,272.422c1.163-.072,1.7-.057,2.785-.085l-.019.538c-.788-.019-1.525.007-2.2.049,0,.479-.07.973-.1,1.445.853.131,1.432.224,2.235.31l-.04.5c-.949-.125-1.723-.2-2.813-.4.065-.719.126-1.535.156-2.358m1.532-3.589a11.506,11.506,0,0,1,.244,1.7.248.248,0,1,0,.492-.061,6.717,6.717,0,0,0-.264-1.735Zm-1.941-.1c.935-.166,1.892-.422,2.787-.565a8.591,8.591,0,0,1,.391,2.216.709.709,0,1,1-1.408.166l-1.452.795-.055-.624,1.389-.682a7.12,7.12,0,0,0-.188-1.074l-1.374.271Zm-.992-3.4,2.653-1.017a21.331,21.331,0,0,1,.872,2.794l-.517.15a17.689,17.689,0,0,0-.622-2.183l-.458.165.6,2.144-.479.127c-.193-.819-.4-1.354-.6-2.145l-.771.274c.232.67.421,1.265.638,2.122l-.5.189a24.71,24.71,0,0,0-.821-2.62m-1.473-2.8c.526-.306,1.225-.663,1.571-.891a4.1,4.1,0,0,1,.251.483l-1.1.569.5.869c.682-.3,1.365-.6,2.056-.921l.251.484-2.53,1.145c-.295-.557-.525-1-.994-1.737m.262-2.522c.2-.042.362.194.313.373-.162.724-1.037-.278-.313-.373m-4.955-2.832.439-.456a23.046,23.046,0,0,1,2.158,2.018c.514-.021.678-.042.927-.264l.387-.374a14.008,14.008,0,0,0-2.483-2.458l.448-.488a15.71,15.71,0,0,1,2.543,2.473c.241.289.274.521-.1.839l-.326.263c-.325.266-.369.317-1.091.284a4.466,4.466,0,0,1,.437.5l-.588.419a23.668,23.668,0,0,0-2.754-2.755m2.158.355c.04-.5.564-.328.493-.06-.006.254-.3.3-.493.06m-2.784-.745a28.041,28.041,0,0,0-3.3-1.908,2.777,2.777,0,0,1,.335-.55,31.307,31.307,0,0,1,2.926,1.647c-.468-.861-.922-1.655-1.406-2.455l-.95-.479.315-.587a7.74,7.74,0,0,1,.9.433l-.025.57,1.328,1.794a1.294,1.294,0,0,0,.651-.529l-.565-.375.375-.572a6.847,6.847,0,0,1,.646.431.3.3,0,0,1,.1.473,1.385,1.385,0,0,1-.517.5l-.584.291a3.6,3.6,0,0,1,.285.588,3.367,3.367,0,0,1-.511.728m-7.362-5.939.1-.486.639.106c.088.024.133.1.083.28l-.079.3c.836.193,2.081.527,2.985.832.434.15.546.211.372.739l-.276.79-1.8-.26c-.706-.093-.774.049-.815.2l.415.111a1,1,0,0,1-.136.508,3.281,3.281,0,0,0-.74-.2l.127-.478a.809.809,0,0,1,.919-.586c.624.04,1.659.093,1.659.093.055-.208.185-.334-.112-.414-.94-.285-2.1-.593-3.17-.849l.139-.635Zm-5.109-.25.114-.066c.941.636,1.927.868,3.112,1.539a.978.978,0,0,0,.833-.738,6.62,6.62,0,0,0-.773-.078l.063-.591a8.991,8.991,0,0,1,1.106.137,1.487,1.487,0,0,1-.89,1.552,1.147,1.147,0,0,1,.553,1.012l-.165.021c-.46-.765-1.234-.843-3.05-1.649-.338.2-.356.737-.348,1.058l.56-.074.132.578a10.107,10.107,0,0,0-1.023.143c-.039-.681-.114-1.47.369-1.853a1.151,1.151,0,0,1-.592-.99m-5.164,1.144-.154-.489a3.69,3.69,0,0,1,.6-.223c.106-.035.156.008.229.219l.082.28c.824-.227,2.08-.532,3.021-.727.433-.076.56-.074.668.467l.164.813-1.74.685c-.636.244-.647.4-.6.575l.419-.143.125.481-.727.221-.132-.452a.784.784,0,0,1,.516-.98c.549-.27,1.5-.719,1.5-.719-.033-.234.008-.383-.3-.3-.949.226-2.137.515-3.169.813l-.184-.624Zm-2.645,2.172c-.359-.672.689-.679.516-.15-.047.178-.219.229-.516.15m-3.323,4.58c-.731-.707-1.189-1.248-1.906-2.015l.4-.406,1.5,1.649,1.269-1.068-.909-1.106.415-.37,1.229,1.578c-.636.6-1.353,1.141-1.989,1.739m-2.49,3.012c-.808-.538-1.549-1.087-2.313-1.675a20.809,20.809,0,0,1,2-2.474l.388.329a17.622,17.622,0,0,0-1.586,2.006l.287.236a22.041,22.041,0,0,1,1.628-1.93l.387.327c-.508.6-1.1,1.273-1.568,1.947l.6.482a17.782,17.782,0,0,1,1.553-1.887l.389.327a28.983,28.983,0,0,0-1.764,2.312m-1.914,3.23-2.561-1.1.232-.513,2.045.9a14.234,14.234,0,0,1,.861-1.56l-1.02-.69.312-.46,1.457.966c-.522.885-.9,1.583-1.327,2.461m-2.47,1.642-.509.12-.144.537.355.447Zm1.119,3.4a21.221,21.221,0,0,1-2.324-2.7,5.454,5.454,0,0,1,.256-.955c1-.307,2.041-.507,3.193-.775l-.189.589-1.466.374c-.157.47-.315.94-.475,1.537.4.524.7.827,1.115,1.291Zm-2.427,3.254-.552.043a21.023,21.023,0,0,1,.041-3l.5.037,1.684,1.892a13.293,13.293,0,0,1,.123-1.759l.526.044a21.722,21.722,0,0,0-.079,2.667l-.424.046c-.306-.4-1.478-1.835-1.828-2.185a20.46,20.46,0,0,0,.011,2.211m2.713,3.382c-1.033.3-1.705.439-2.714.65a18.58,18.58,0,0,1-.439-2.871l.464-.067c.042.556.247,1.922.336,2.3l.479-.128-.324-2.231.5-.088a17.8,17.8,0,0,0,.353,2.239l.739-.154c-.128-.707-.25-1.316-.368-2.179l.53-.081c.149.871.28,1.8.443,2.613m.632,3.689-.624-1.7c-.233-.67-1.136-.5-.79.461.14.42.411,1.069.595,1.566Zm-1.208.476c-.27-.648-.493-1.124-.79-1.908-.15-.391-.5-.261-.375.094a17.022,17.022,0,0,0,.776,1.966Zm1.087-2.4.748,2.186-2.5,1.055a22.074,22.074,0,0,1-.891-2.126c-.382-1.063.207-1.481.888-1.3a.965.965,0,0,1,1.76.182m1.057,5.179c-.047.18-.193.365-.524.18-.4-.523.571-.711.524-.18m22.2-24.19a6.164,6.164,0,0,1,.462.764l-.129.126c-.068-.339-.407-.494-.333-.89m-.459.294c.231-.035.24.288.3.432a.958.958,0,0,0,.254.354c-.339.2-.438-.5-.551-.787m-.176,1.009a1.443,1.443,0,0,1-.11-.894c.2.214.093.6.261.807a.135.135,0,0,1-.151.088m-.572.007a2.922,2.922,0,0,0,.052-.786c.03.008.1-.006.1-.034.123.255-.065.716.061.846-.122.1-.195.012-.215-.025m-.32-.821c.156.008.146.039.152.136a1.433,1.433,0,0,0-.147.793c-.206-.184,0-.579,0-.929m-.715.768a1.355,1.355,0,0,0,.3-.753.083.083,0,0,1,.115-.066c-.043.276-.154.568-.2.873-.038.023-.126,0-.208-.054m-.084-.985c.106.19-.17.628-.3.754-.184-.146.219-.583.3-.754m-.837.513c.048-.178.257-.6.488-.636l-.238.415c-.119.319-.168.274-.25.221m-.551-.436a1.435,1.435,0,0,1,.629-.566c.025.262-.4.436-.42.622-.059-.015-.216-.025-.208-.056m.286-.947c.089.024.073.085.133.1-.031.119-.288.243-.362.287-.187.109-.174.178-.362.158l-.043-.075c.161-.244.452-.262.634-.47m-.129-.226c-.291.017-.564.329-.831.257.169-.274.54-.239.766-.369a.1.1,0,0,1,.065.113m-4.579,24.08c4.177,1.118,7.707,2.161,11.775,3.092l.528-1.971-5.6-1.5-.409,1.523c-3.732-1-9.562-2.466-11.924-3.131l.425-1.583-5.6-1.5c-.19.59-.383,1.306-.519,1.941,3.225.993,6.551,1.853,11.321,3.13m-9.746-9.362,1.658.445.073-.269-6.754-1.809a2.1,2.1,0,0,0-.053.308c2.371.634,3.3.849,5.076,1.326m.13,4.13-.249.223c.741.2,3.279.909,4.71,1.261l.071-.27c-1.768-.5-2.526-.644-4.532-1.214m4.58,1.036.048-.179-4.326-1.158-.164.147Zm-2.8-4.942-1.277,3.464c1.858.531,2.866.8,4.178,1.119.335-1.252.6-2.11.95-3.551l-1.421-.381-.2.395a1.117,1.117,0,0,1-.748-.168,1.046,1.046,0,0,1,0-.481Zm2.569-.816a.884.884,0,0,0-.475-.127,3.9,3.9,0,0,0-.409,1.649.762.762,0,0,0,.444.12,3.96,3.96,0,0,0,.44-1.642m-.753.085.216-.452a1.283,1.283,0,0,1,.741.2,2.766,2.766,0,0,1-.039.5l1.422.38.336-1.252-3.583-.962-.484,1.215Zm-1.76-2.2,4.414,1.182a4.4,4.4,0,0,1,2.573-.718l-6.664-1.785Zm-.113-1.118-.179-.047-2.176,1.847.354.1Zm-5.793.879,5.191-3.728.011-.157-5.735,3.742Zm.891-5.455,4.808-1.591.048-.178-4.609,1.324Zm2.783-4.341,3.53-.493.115-.195-3.251.282Zm4.293-3.457c.447-.01.847.034,1.567.066l.272-.182c-.4-.043-.763-.109-1.262-.145Zm-2.97,10.722c-.037.374.15.392.979.614l21.8,5.842c.532.143.843.291,1.095-.058-1.956-.524-7.153-1.981-23.876-6.4m.032-.119,23.914,6.375.213-.327-24.023-6.437Zm14,2.953c-.026-.264-.485-.322-.825-.478-1.073-.383-2.19-.715-2.723-1.689a1.882,1.882,0,0,0,.849.387c.216.026-.4-.3-.178-.4a2.074,2.074,0,0,0,.89.591c.155.008-.435-.278-.2-.312.346.254,1.412.54,1.357.269-.034-.106-.285-.236-.565-.375a4.962,4.962,0,0,1-2.234-2.327,2.022,2.022,0,0,0,.756.492c.149.039.291-.02.2-.141-.2-.211-.534-.494-.543-.816.2.212.36.193.4.171.075-.045-.048-.174-.143-.295a3.506,3.506,0,0,1-.835-1.984l-.091.1a5.207,5.207,0,0,1-.148,1.975,7.622,7.622,0,0,1-.159,3.317,11.625,11.625,0,0,0,4.2,1.51m-3.1-9.181-.073-.084-.379.347.095.122Zm1.052,1.049-1.177,1.67a.7.7,0,0,0,.106.315l1.182-1.922Zm.994.554-1.465,3.1a.437.437,0,0,0,.167.2l1.407-3.238Zm1.093.422-.088-.024-1.435,4.64a1.127,1.127,0,0,0,.31.147Zm.036-.375a5.083,5.083,0,0,0,4.392-.742,2.651,2.651,0,0,0,.154-1.046,4.365,4.365,0,0,1-4.382,1.064,4.9,4.9,0,0,1-3.44-3.034,2.6,2.6,0,0,0-.339.9,5.462,5.462,0,0,0,3.615,2.856m-4.069-1.632a3.084,3.084,0,0,1,.118-1.153c-.247.093-.325.265-.43.652-.169-.078-.252,0-.4.053.034.235.24.289.366.418a1.275,1.275,0,0,1,.342.029m.083-1.259c.1-.358-.85-.739-1.177-.828-.117-.03-.126,0-.149.089a5.484,5.484,0,0,1,1.326.738m-.841-.417A1.908,1.908,0,0,0,1581,259.3l-.2.521c.719.161.726-.221,1.271-.235m-.4-.523a2.081,2.081,0,0,1,1.327.739c.239-.9-.893-1.646-1.327-.739m2.26.221a4.9,4.9,0,0,0,3.173,2.61,4.515,4.515,0,0,0,3.319-.295c.413-.24,1.137-.688.958-1.087a4.26,4.26,0,0,1-4.145,1.129,4.774,4.774,0,0,1-3.293-2.994c-.225.132-.1.388-.011.637m.988-1.433a3.138,3.138,0,0,0,.937,1.948,3.943,3.943,0,0,0,2.587,1.013,3.2,3.2,0,0,0,2.569-1.3,9.509,9.509,0,0,0-1.055-1.274,1.857,1.857,0,0,1-2.2,1.108,2.148,2.148,0,0,1-1.555-2.018,11.647,11.647,0,0,0-1.281.519m4.708-1.808a1.04,1.04,0,0,1,.3-.4,5.24,5.24,0,0,0-2.222-.594,1.026,1.026,0,0,1,.057.494,2.231,2.231,0,0,1,1.868.5m1.409,7.416a1.211,1.211,0,0,1,.309.146c.172-.049.381.007.525-.178-.094-.121-.13-.227-.315-.244.1-.39.121-.576-.047-.781a3.071,3.071,0,0,1-.472,1.057m.584-1.346a2.077,2.077,0,0,1,1.517.02c-.015-.066,0-.127-.019-.164a2.2,2.2,0,0,0-1.353-.171.675.675,0,0,0-.146.314m.239-.418a1.922,1.922,0,0,1,1.232.139.715.715,0,0,0-1.232-.139m1.166.505c-.326-.088-1.334-.231-1.432.129a5.428,5.428,0,0,1,1.518.022c.024-.089.033-.118-.086-.15m0,.253a.819.819,0,0,0,.526.527l.05-.307a1.048,1.048,0,0,0-.576-.219m.491.773,0-.127a.87.87,0,0,1-.59-.638,1.677,1.677,0,0,0-.393-.074c.464.285.279.619.981.839m-2.779.182-.215-.5-.1.034.144.52a.438.438,0,0,1,.174-.051m-1.381,2.19.217-.1-.384-2.12-.1.006c.06.72.165,1.516.263,2.215m-1.415.9c-.472.1.256.58.959.449-.323.489-.894.368-1.5.494-.507.119.783.4,1.346.072-.128.125-.49.412-.229.386.658-.207.675-.747.942-1.38a1.82,1.82,0,0,1,.423-.751l-.021-.036a3.231,3.231,0,0,1-1.92.765m-.637.6.223,0,.314-3.659-.1.006Zm1.419.86a5.545,5.545,0,0,1-2.682.656s.485.673-.575.487a1.3,1.3,0,0,0,1.278.086c-.01.158-.353.256-.168.275a2.4,2.4,0,0,0,1.4-.234,3.028,3.028,0,0,1-1.864.557c.42.208.592.158.9.433a1.24,1.24,0,0,1,.648-.051,10.8,10.8,0,0,1,1.066-2.208m12.573.361-.138-.549-2.675-1.868,0,.224Zm-2.137-5.179-.37-.515c-.45-.217-.8-.342-1.167-.5l.145.293c.639.332,1.009.5,1.392.727m2.445,9.837-3.33-3.452-.048.181,3.368,3.781Zm-1.434,5.823-3.093-6.108-.069.142,2.631,5.824Zm-3.968-1.063-.964-2.689-.177-.049.784,2.644Zm-1.446-3.139-6.073-1.627a4.428,4.428,0,0,1,1.691,1.861l4.029,1.081Zm-1.493,2.735.216-1.285-3.436-.92-.336,1.254,1.511.4.171-.4a2.244,2.244,0,0,1,.769.207l-.052.433Zm-2.193.949a.6.6,0,0,0,.444.118,4.472,4.472,0,0,0,.44-1.642,1.281,1.281,0,0,0-.474-.126,3.95,3.95,0,0,0-.411,1.65m.763-.116a1.673,1.673,0,0,1-.254.475,1.1,1.1,0,0,1-.743-.2,1.786,1.786,0,0,1,.048-.533l-1.481-.4-.95,3.553c1.509.4,2.627.737,4.087,1.1l.566-3.656Zm-3.6,3.706c1.768.508,3.1.863,4.708,1.262l-.106-.315c-1.982-.532-3.131-.871-4.53-1.214Zm.119-.447c.948.255,4.42,1.152,4.42,1.152l-.069-.21c-2.37-.634-2.962-.793-4.3-1.12Zm-6.8-10.3a3.7,3.7,0,0,0-3.115.607l-.407,1.523,5.539,1.483.448-1.672a3.472,3.472,0,0,0-2.465-1.941m4.667,1.188-3.318-.889a5.774,5.774,0,0,1,1.38,1.364,4.63,4.63,0,0,1,1.938-.474m-2.324,2.512,5.539,1.484.433-1.611a3.479,3.479,0,0,0-2.509-2.017,3.339,3.339,0,0,0-3.015.473Zm11.936-.353.1-.133c-8.827-2.365-15.586-4.272-22.9-6.136l.02.166Zm-22.774-6.006a.234.234,0,0,0,.189.243l22.189,5.946a.258.258,0,0,0,.342-.1Zm4.7,5.93c-.633,2.358-1.032,3.852-1.508,5.866,2.027.606,3.369.935,5.45,1.462l1.568-5.852c-2.17-.549-3.584-.959-5.51-1.476m5.835,1.563c-.559,2.09-.889,3.441-1.537,5.859,2.1.563,3.545.984,5.509,1.477l1.568-5.851Zm7.344,1.744.192-.716c-5.089-1.4-9.628-2.579-14.774-3.991a5.851,5.851,0,0,1-.231.739Zm2.344.852-.043.277,6.725,1.8a.754.754,0,0,0,.131-.254Zm-24.647.627a11.006,11.006,0,0,0-.4,1.268,18.945,18.945,0,0,1-1.764-9.3l8.711,2.333.191-.716-8.856-2.373a11.543,11.543,0,0,1,.676-3.594,18.639,18.639,0,0,1,3.981-6.8,17.657,17.657,0,0,1,13.109-5.669,12.793,12.793,0,0,0-10.007,7.845,8.607,8.607,0,0,0-.729,4.731c.516.2.427-.174.442-.585a6.929,6.929,0,0,1,.276-1.621c.023-.089.083-.074.059.015-.246,1.63-.166,2.516.645,2.572a3.324,3.324,0,0,1-.161-1.77c.007-.03.067-.014.059.017.06,1.551.174,1.837.9,1.969a5.151,5.151,0,0,1-.434-1.107c.016-.06.06.015.06.015.214.379.475,1.184,1.2,1.315a1.149,1.149,0,0,1-.4-.748c-.014-.067-.05-.4,0-.254a1.744,1.744,0,0,0,1.437,1.28,6.584,6.584,0,0,1-1.148-2.706,6.215,6.215,0,0,0,1.51,2.419,2.508,2.508,0,0,0,1.445.771c-.92-.95-1.576-1.7-1.609-2.286-.012-.2.044-.051.044-.051.3.559,1.419,2.523,4.787,3.1-.793-.6-2.162-.578-3.454-2.747.727.483,2.547,1.514,2.682,1.008.049-.18-.609-.451-1.181-.925a5.3,5.3,0,0,1-2.132-3.419c-.047-.3.067-.014.067-.014.178.528.713,1.728,1.424,1.918.326.087-.107-.317-.283-.843.458.539.575.344.394.072a1.872,1.872,0,0,1-.292-1.165,1.106,1.106,0,0,0,.4-.66c.182.623.834.8.732,1.539-.038.374-.2.492-.294.977-.134.733.346.957.415,1.648.491.418.976.741.77,1.037-.137.156-.374.092-.641.02-.079.652.662.849,1.082,1.058.511-2.263.567-3.655-.822-4.636-.043-.075.061-.111.061-.111a2.346,2.346,0,0,1,1.072,1.215,5.6,5.6,0,0,0,.155-1.527c-.188.111-.279.214-.474.227-.685-.281-1.068-.991-1.676-1.569,0,0,.026-.09.054-.081a8.578,8.578,0,0,0,1.67,1.471.931.931,0,0,0,.492-.413c.071-.14.133-.733.171-.754.008-.028.072.084-.036.726.158.011.343-.8.365-1.245.018-.186-.226-.348-.363-.545-.187-.242-.427-.18-.814-.156-.067.014-.024.09.064.114.149.04.276.042.267.071-.031.12-.546.142-.413.24.08.056.311.02.5.038.1.093-.428.3-.252.349.09.025.234-.162.509-.12.015.069-.27.055-.314.107s0,.1.072.084c.2-.041.38.133.572.121-.232.162-.334-.057-.527-.044-.1.007-.195.012-.2-.086a.191.191,0,0,1-.224,0c-.08-.055.019-.188.283-.341a.791.791,0,0,1-.5-.037c-.131-.1.02-.187.364-.287-.439-.02-.375-.259-.143-.294-.041-.2-.331-.312-.2-.565-.072-.082-.1.007-.178-.048-.09.1.147.168-.017.187-.1.007-.14-.2-.115-.286.1-.007.427.178.527.044-.052-.045-.3-.176-.091-.248a.39.39,0,0,0,.209.28.94.94,0,0,1,.406-.562.793.793,0,0,0-1.037-.278c-.064.239.154.49.093.6-.057-.144-.211-.28-.207-.536-.23.034-.342.452-.319.842.406.141.45.569.427,1.011a.455.455,0,0,1,.292.333c-.039.022-.244-.161-.4-.169.068-.72-.2-1.045-.753-1.1-.021-.039-.1-.219.255-.123a1.483,1.483,0,0,1,.281-.693,2.069,2.069,0,0,1-.653-.047c-.142.41-.856,1.177-.789.811a4.741,4.741,0,0,1,3.279-4.175c.1-.007.3-.049.013.067a5.091,5.091,0,0,0-2.934,3.726,5.178,5.178,0,0,0,.534-1.169,1.793,1.793,0,0,1,.468.029c.187-.333.378-.7.936-.644a1.021,1.021,0,0,1,.934.666c.811-1.608,2.293-1.69,3.81-2.372.5-.217.922-.712.174-1.008.741-.633-.1-1.149-.584-1.372a12.62,12.62,0,0,1,4.532,1.213c-.529-.044-1.518-.022-1.193.9-.793-.117-.68.522-.352.96.653.881,1.513,1.462,1.9,2.525a2.981,2.981,0,0,1,.19,1.426,1.235,1.235,0,0,1,1.17-.1c.509.234.493.644.487,1.026a1.7,1.7,0,0,1,.421.209,5.18,5.18,0,0,0-.121,1.279,5.094,5.094,0,0,0-.679-4.694c-.189-.243-.035-.1.045-.052a4.74,4.74,0,0,1,.751,5.257c-.126.35-.359-.673-.277-1.1a2.014,2.014,0,0,1-.59-.286,1.464,1.464,0,0,1-.1.74c.355.1.2.213.159.235-.509-.232-.9-.081-1.2.575-.14-.071-.409-.015-.432-.052a.455.455,0,0,1,.42-.143c.2-.4.452-.744.876-.662.214-.327.326-.743.143-.889-.125.223-.325.266-.446.361,0-.127.317-.235.382-.474a.762.762,0,0,0-1.038-.277,1.309,1.309,0,0,1,.07.689.4.4,0,0,0,.324-.138c.144.168-.139.157-.2.171.018.164.4.171.479.224-.025.089-.161.244-.241.191-.134-.1.1-.036.077-.172-.1.007-.073-.082-.18-.046-.011.283-.316.235-.453.39.183.145.121.384-.271.184.249.258.334.409.171.429a.807.807,0,0,1-.45-.216c.152.264.17.429.074.436a.189.189,0,0,1-.192-.117c-.054.081-.134.03-.214-.026-.163-.1-.358.033-.48-.223.161.106.4.044.554.181.052.044.118.031.106-.037s-.264-.2-.218-.25c.257.1.29.334.379.357.179.048-.178-.4-.044-.428.169.078.353.223.448.217.165-.02-.267-.3-.236-.416.009-.031.118.033.267.072.088.024.164-.021.112-.066-.322-.214-.5-.39-.783-.273-.217.1-.507.119-.585.29-.2.395-.448,1.192-.307,1.261.227-.611.339-.676.332-.646.021.038-.219.581-.231.738a.938.938,0,0,0,.22.6,8.6,8.6,0,0,0,2.182-.44c.03.008.007.1.007.1a6.448,6.448,0,0,1-2.237.521l-.123-.129a2.254,2.254,0,0,0-.538,1.168,4.884,4.884,0,0,1,.853-.57l.022.036a7.325,7.325,0,0,0-2.458,3.725c1.466.329,2.241-.071,1.532-.39-.06-.015-.044-.076.015-.06a4.9,4.9,0,0,0,4.092-.695,3.606,3.606,0,0,1-2.483,1.447,6.746,6.746,0,0,1-1.334.122c-1.8-.034-2.34-.628-2.624-.16,2.787.972,4.562.871,6.178-.072.038-.022.159-.117.022.038a3.682,3.682,0,0,1-2.594,1.032,3.815,3.815,0,0,0,2.912-.084s.067-.016-.015.059a2.565,2.565,0,0,1-1.207.477,2.022,2.022,0,0,0,2.4-.795c.185-.207.107-.037.107-.037a2.06,2.06,0,0,1-1.413,1.125c.573.346,1.333-.122,1.75-.491l-.3.4-.5.344a1.358,1.358,0,0,0,1.815-.378c-.321.492-.679.875.05.878a9.9,9.9,0,0,0,1.465-3.573,12.611,12.611,0,0,0-4.439-12.579,6.834,6.834,0,0,1,1.191.767,18.993,18.993,0,0,1,5.746,6.754,17.468,17.468,0,0,1,1.791,10.621,20.549,20.549,0,0,1-1.321,4.573c-2.806-.784-6.251-1.675-8.65-2.319l-.191.717c3.664,1.013,6.31,1.69,8.5,2.279a16.431,16.431,0,0,1-5.925,6.826,8.6,8.6,0,0,0,.2-.875c-9.471-2.569-16.9-4.463-26.031-7.005m13.887-19.123c.04-.149-.251-.13-.191-.242a2.755,2.755,0,0,1,.333.186l-.249.221c-.073-.084-.244-.16-.106-.316.14.07-.033.119.144.166.069-.014.01-.03.069-.014m9.641,7.383a1.243,1.243,0,0,0,1.264-.332,2.26,2.26,0,0,1-1.677.926c-.416.015-.042.276.367.289.885.015,1.294-.325,1.949-1.108-1.372,2.512-4.547,1.916-4.815,1.973-.2.042-.3.273.041.554-.206-.057-.441-.245-.453-.441.01-.51.891-.241,1.471-.278.236-.287.4-.308.766-.722a2.468,2.468,0,0,0,.556-1.484c.162-.723.861-.728,1.744-1.292a2.156,2.156,0,0,1-.6,1.055c-.156.118.162.235.645-.148a1.49,1.49,0,0,1-1.207.829c-.291.017-.137.155-.048.178m-.251-4.865c.059.015,0,0,.051.046.179.048.055-.081.211-.071.04.2-.146.184-.25.22l-.107-.316a3.324,3.324,0,0,1,.379.007c0,.127-.244-.034-.284.115m-20.2,25.013-1.895-1.819c-.513.023-.678.044-.928.264l-.386.377a14.907,14.907,0,0,0,2.647,2.564l.622-.666c.273-.309.217-.453-.061-.72m.357,1.279-.9.977a19.339,19.339,0,0,1-3.562-3.418l.808-.647c.325-.264.372-.317,1.093-.283a4.431,4.431,0,0,1-.437-.5l.589-.418a19.178,19.178,0,0,0,2.447,2.479c.8.692.742.9-.04,1.811m4.411,1.664-.371.8-2.1-.593c-.119-.033-.275-.041-.343.1l.353.221-.27.409a4.25,4.25,0,0,1-.655-.4l.268-.408c.269-.407.669-.364,1.063-.29l1.446.29c.156-.341.237-.288-.185-.5a28.468,28.468,0,0,1-2.541-1.417l.338-.548-.272-.17.313-.46.485.322c.081.053.154.136.047.3l-.169.275c.766.461,1.126.655,2.3,1.256.392.2.523.3.291.814m5.655,1.291a8.975,8.975,0,0,1-.389,1.335,4.256,4.256,0,0,1-1.576.665,14.679,14.679,0,0,1-2.983-.83l.609-1.917-.348-.125.206-.65c.436.149.962.321,1.17.378l-.147.665-.326-.088a.162.162,0,0,0-.226.132l-.343,1.156c.607.226.734.228,1.249-.273l.651-.657-.5-.135.177-.657c.5.136.8.215,1.222.3l-.147.663-.178-.047a.325.325,0,0,0-.419.145,13.542,13.542,0,0,0-.8,1.1l.622.168a2.41,2.41,0,0,0,1.7-.058,10.036,10.036,0,0,0,.3-1.007l-.682-.182.147-.664.777.175c.237.065.3.177.238.416m2.276.161-.012,2.174-.486.158c.039-.854.08-1.131.1-1.8,0-.256-.085-.279-.27-.3l-.662-.017.058-.688.885.013c.252,0,.386.1.387.454m4.974-.553.521,1.963-.474.352-.384-1.767c-.077-.309-.241-.288-.472-.253a26.6,26.6,0,0,1-3.172.461l-.07-.691a25.254,25.254,0,0,0,3.218-.513c.441-.105.709-.035.833.448m1.736-.911.34.858-.265.28-.183-.5c-.058-.144-.162-.108-.267-.072l-.524.181-.211-.633.772-.274c.209-.072.28.011.339.155m-.542-3.313a37.5,37.5,0,0,0-18.987-5.088l.8.216a36.915,36.915,0,0,1,8.99,1.288,30.347,30.347,0,0,1,8.488,3.393Zm2.353.821c-1.059-.315-2.164-.578-3.111-.832a4.374,4.374,0,0,0-.233.866l2.1.564a16.065,16.065,0,0,1-11.617,1.174,16.867,16.867,0,0,1-10.274-7.04l2.251.6a4.344,4.344,0,0,0,.231-.865l-3.259-.875.049-.177,1.865.5c6.365-.406,15.781,2.245,20.353,5.453l1.688.453c.03.008-.011.157-.047.178m.246,3.106c-.209.072-.4.083-.532-.142-.011-.675.841-.415.532.142m2.873-3.966,1.706,2.281-.425.4-1.429-.351-.154,1.4a2.07,2.07,0,0,1-.533.337l-1.683-2.372.46-.292,1.233,1.8.213-1.51,1.417.284-1.213-1.638Zm2.446-2.256,2.1,1.873a14.851,14.851,0,0,1-1.953,2.069l-.312-.371a15.381,15.381,0,0,0,1.526-1.671l-.328-.313-1.571,1.595-.349-.349c.568-.583,1.038-1.034,1.5-1.581l-.534-.5a20.588,20.588,0,0,1-1.56,1.437l-.326-.438a22.5,22.5,0,0,0,1.8-1.756m2.008-2.757,2.49,1.371-.292.5-2.018-1.117c-.323.491-.574.838-.918,1.291.351.349.675.565,1.026.913l-.336.423c-.46-.412-.888-.718-1.443-1.251.5-.7,1.008-1.393,1.49-2.128m2.36-.519.446.119a3.647,3.647,0,0,0,.287-.6l-.359-.319Zm-.924-2.711,2.223,2.132a8.424,8.424,0,0,1-.566,1.288l-2.945-.629.233-.513,1.5.337.458-1c-.394-.426-.731-.708-1.1-1.1Zm3.694-2.67a19.361,19.361,0,0,1-.8,2.915l-.572-.153c-.335-.762-.685-1.533-1.06-2.408a14.491,14.491,0,0,1-.542,1.923,2.783,2.783,0,0,1-.5-.166,27.939,27.939,0,0,0,.7-2.724l.509.1,1.2,2.689c.2-.658.357-1.315.556-2.281Zm1.281-2.619a21.011,21.011,0,0,0-2.524-11.555,22.451,22.451,0,0,0-19.849-12.421,22.094,22.094,0,0,0-11.337,2.85,22.946,22.946,0,0,0-10.911,25.2,20.426,20.426,0,0,0,1.427,4.031,22.791,22.791,0,0,0,11.873,11.628,23.613,23.613,0,0,0,4.689,1.448,23.109,23.109,0,0,0,13.1-1.609,22.191,22.191,0,0,0,10.673-9.617,23.53,23.53,0,0,0,2.858-9.952m-4.241,13.1a22.591,22.591,0,0,1-14.229,8.666,21.64,21.64,0,0,1-9.581-.264,23.891,23.891,0,0,1-17.367-18.251,22.622,22.622,0,0,1,.03-9.589,23.9,23.9,0,0,1,10.606-14.82,21.619,21.619,0,0,1,7.871-3.073,22.125,22.125,0,0,1,9.379.3,23.622,23.622,0,0,1,14.58,10.4,20,20,0,0,1,3.175,7.824,22.07,22.07,0,0,1-.135,9.625,23.5,23.5,0,0,1-4.331,9.174" transform="translate(-1560.998 -249.038)"/>
        </g>
        <g id="Group_319" data-name="Group 319" transform="translate(0 37.237)">
          <path id="Path_1043" data-name="Path 1043" d="M1449.822,326.983H1321.308V298.465h128.514Zm-126.614-1.9h124.715V300.365H1323.208Z" transform="translate(-1321.308 -298.465)"/>
        </g>
        <g id="Group_320" data-name="Group 320" transform="translate(37.618 7.081)">
          <path id="Path_1044" data-name="Path 1044" d="M1396.688,252.447h-8.369v-7.7h4.063v4.279h8.674v3.208l-5.039,13.193h-4.306Z" transform="translate(-1388.319 -244.746)"/>
        </g>
        <g id="Group_321" data-name="Group 321" transform="translate(51.617 11.36)">
          <path id="Path_1045" data-name="Path 1045" d="M1414.023,264.706c.58-2.871,1.282-5.071,4.276-6.079l-4.606-6.259h4.8l4.856,6.537c1.986-.794,2.169-2.412,2.413-4.093.121-.824.214-1.68.336-2.444h4.215c-.123.794-.274,1.712-.458,2.6-.611,3.206-1.436,5.375-4.765,6.323l5.558,7.482h-4.8l-5.717-7.669c-1.649.886-1.741,2.534-2.016,4-.183,1.16-.409,2.661-.532,3.668h-4.328c.183-1.069.523-2.844.767-4.064" transform="translate(-1413.256 -252.369)"/>
        </g>
        <g id="Group_322" data-name="Group 322" transform="translate(71.307 7.081)">
          <path id="Path_1046" data-name="Path 1046" d="M1456.7,252.447h-8.369v-7.7h4.063v4.279h8.673v3.208l-5.039,13.193h-4.307Z" transform="translate(-1448.332 -244.746)"/>
        </g>
        <g id="Group_323" data-name="Group 323" transform="translate(85.79 11.36)">
          <path id="Path_1047" data-name="Path 1047" d="M1475.263,265.351h8.429l-9.559-12.982h4.673l4.582,6.232c1.5-.794,1.587-2.352,1.862-3.971.092-.764.213-1.5.3-2.261h4.307l-.518,2.6c-.551,2.871-1.284,5.1-4.124,6.14l3.481,4.734v2.931h-13.438Z" transform="translate(-1474.132 -252.369)"/>
        </g>
        <g id="Group_324" data-name="Group 324" transform="translate(103.617 11.36)">
          <path id="Path_1048" data-name="Path 1048" d="M1505.888,265.351h8.338v-6.69c0-1.863-.856-2.87-2.626-2.87h-5.56v-3.422h6.567c2.6,0,4.337,1.16,5.131,2.932a7.734,7.734,0,0,1,.581,3.483v6.567h2.656v3.42h-15.088Z" transform="translate(-1505.888 -252.369)"/>
        </g>
      </g>
      <g id="Group_326" data-name="Group 326" transform="translate(10.774 47.875)">
        <path id="Path_1049" data-name="Path 1049" d="M1344.39,320.81c0-1.262-.247-1.77-1.452-1.77H1340.5v-1.626h3.077a2.881,2.881,0,0,1,2.018.625,2.839,2.839,0,0,1,.74,2.162v6.88h-1.945Z" transform="translate(-1340.5 -317.414)"/>
      </g>
      <g id="Group_327" data-name="Group 327" transform="translate(18.361 47.874)">
        <path id="Path_1050" data-name="Path 1050" d="M1354.015,320.913v-3.5h1.844v3.238a3.887,3.887,0,0,0,.072.842,1.993,1.993,0,0,0,1.829-2.308v-1.772h1.8v1.859c0,1.989-.944,3.018-3.121,3.469a2.465,2.465,0,0,0,2.148,1.075c1.727,0,2.873-1.306,2.873-3.309v-3.093h1.844v3.267a4.5,4.5,0,0,1-4.76,4.732,4.228,4.228,0,0,1-4.529-4.5" transform="translate(-1354.015 -317.413)"/>
      </g>
      <g id="Group_328" data-name="Group 328" transform="translate(28.908 47.743)">
        <path id="Path_1051" data-name="Path 1051" d="M1376.956,325.179v-1.627a3.3,3.3,0,0,0,.724.073c1.379,0,2.018-.856,2.018-2.409,0-1.51-.61-2.424-1.713-2.424-.9,0-1.379.61-1.684,1.466a13.419,13.419,0,0,0-.667,3.426l-.16,1.51h-1.932c.117-1.408.423-3.7.728-5.2l-1.467-2.685H1375l.668,1.147a2.975,2.975,0,0,1,2.583-1.278c2.018,0,3.382,1.336,3.382,3.906,0,2.539-1.321,4.193-3.789,4.193a3.366,3.366,0,0,1-.884-.1" transform="translate(-1372.803 -317.18)"/>
      </g>
      <g id="Group_329" data-name="Group 329" transform="translate(39.296 47.874)">
        <path id="Path_1052" data-name="Path 1052" d="M1391.308,321.189h1.944v4.02h-1.944Zm5.124-.785c0-.884-.421-1.364-1.248-1.364h-3.876v-1.626h4.354a2.511,2.511,0,0,1,2.41,1.323,3.7,3.7,0,0,1,.3,1.727v4.745h-1.945Z" transform="translate(-1391.308 -317.413)"/>
      </g>
      <g id="Group_330" data-name="Group 330" transform="translate(47.972 47.874)">
        <path id="Path_1053" data-name="Path 1053" d="M1407.649,319.04h-.885v-1.626h2.859v7.795h-1.974Z" transform="translate(-1406.764 -317.413)"/>
      </g>
      <g id="Group_331" data-name="Group 331" transform="translate(55.239 47.873)">
        <path id="Path_1054" data-name="Path 1054" d="M1421.727,321.565l-2.017-4.153h2.076l1.6,3.355c1.03-.364,1.03-1.017,1.248-1.989l.305-1.366h2.032l-.363,1.525c-.407,1.742-.872,2.686-2.859,3.034l.8,5.109H1422.6Z" transform="translate(-1419.709 -317.412)"/>
      </g>
      <g id="Group_332" data-name="Group 332" transform="translate(63.8 47.874)">
        <path id="Path_1055" data-name="Path 1055" d="M1435.845,319.04h-.885v-1.626h2.859v7.795h-1.974Z" transform="translate(-1434.959 -317.413)"/>
      </g>
      <g id="Group_333" data-name="Group 333" transform="translate(68.688 47.875)">
        <path id="Path_1056" data-name="Path 1056" d="M1443.667,317.414h4.6a2.527,2.527,0,0,1,2.409,1.321,3.712,3.712,0,0,1,.3,1.728v4.745h-1.946v-4.8c0-.885-.42-1.364-1.247-1.364h-2.178v6.168h-1.945Z" transform="translate(-1443.667 -317.414)"/>
      </g>
      <g id="Group_334" data-name="Group 334" transform="translate(80.817 47.874)">
        <path id="Path_1057" data-name="Path 1057" d="M1466.159,319.04h-.886v-1.626h2.83v5.067h-1.944Z" transform="translate(-1465.273 -317.413)"/>
      </g>
      <g id="Group_335" data-name="Group 335" transform="translate(85.083 47.874)">
        <path id="Path_1058" data-name="Path 1058" d="M1476.485,319.04h-3.614v-1.626h7.257v1.626h-1.7v6.168h-1.945Z" transform="translate(-1472.871 -317.413)"/>
      </g>
      <g id="Group_336" data-name="Group 336" transform="translate(93.555 47.874)">
        <path id="Path_1059" data-name="Path 1059" d="M1488.85,319.04h-.885v-1.626h2.86v7.795h-1.974Z" transform="translate(-1487.964 -317.413)"/>
      </g>
      <g id="Group_337" data-name="Group 337" transform="translate(97.791 47.743)">
        <path id="Path_1060" data-name="Path 1060" d="M1499.662,325.179v-1.627a3.31,3.31,0,0,0,.725.073c1.378,0,2.018-.856,2.018-2.409,0-1.51-.61-2.424-1.713-2.424-.9,0-1.379.61-1.684,1.466a13.423,13.423,0,0,0-.667,3.426l-.161,1.51h-1.931c.117-1.408.422-3.7.728-5.2l-1.467-2.685h2.192l.668,1.147a2.974,2.974,0,0,1,2.583-1.278c2.018,0,3.382,1.336,3.382,3.906,0,2.539-1.321,4.193-3.788,4.193a3.373,3.373,0,0,1-.885-.1" transform="translate(-1495.51 -317.18)"/>
      </g>
      <g id="Group_338" data-name="Group 338" transform="translate(107.816 47.874)">
        <path id="Path_1061" data-name="Path 1061" d="M1514.253,319.04h-.886v-1.626h2.83v5.067h-1.944Z" transform="translate(-1513.368 -317.413)"/>
      </g>
      <g id="Group_339" data-name="Group 339" transform="translate(112.168 45.277)">
        <path id="Path_1062" data-name="Path 1062" d="M1525.1,317.011h-3.978v-4.223h1.93v2.6h4.122v1.525l-2.394,6.27h-2.047Z" transform="translate(-1521.121 -312.788)"/>
      </g>
    </g>
  </g>
</svg>
